<?xml version="1.0" encoding="UTF-8" standalone="no"?>
<svg width="605px" height="176px" viewBox="0 0 605 176" version="1.1" xmlns="http://www.w3.org/2000/svg" xmlns:xlink="http://www.w3.org/1999/xlink">
    <!-- Generator: Sketch 39.1 (31720) - http://www.bohemiancoding.com/sketch -->
    <title>specular_final</title>
    <desc>Created with Sketch.</desc>
    <defs></defs>
    <g id="Page-1" stroke="none" stroke-width="1" fill="none" fill-rule="evenodd">
        <g id="specular_final" fill="#1A1918">
            <path d="M27.314,59.247 C19.816,59.247 13.122,60.439 8.837,62.849 C3.347,65.795 0.669,70.225 0.669,75.313 C0.669,80.134 1.741,82.811 4.686,85.891 C7.899,89.239 15.263,92.184 25.841,93.925 C41.105,96.335 43.113,98.343 43.113,101.691 C43.113,104.369 40.301,107.18 28.117,107.18 C18.477,107.18 7.23,102.627 5.49,101.691 C4.82,101.288 4.284,101.155 3.883,101.155 C3.213,101.155 2.677,101.422 2.142,102.091 L0.536,103.966 C0.134,104.501 0,105.037 0,105.439 C0,105.975 0.268,106.51 0.669,107.045 C4.954,112.536 16.736,117.622 28.787,117.622 C35.749,117.622 42.443,116.431 46.728,114.021 C52.218,111.076 54.895,106.645 54.895,101.556 C54.895,96.736 53.824,94.059 50.879,90.979 C47.665,87.631 40.301,84.685 29.724,82.945 C14.46,80.535 12.452,78.527 12.452,75.179 C12.452,72.502 15.398,69.69 27.448,69.69 C37.088,69.69 48.87,74.243 50.611,75.179 C51.28,75.581 51.816,75.715 52.218,75.715 C52.887,75.715 53.423,75.448 53.958,74.778 L55.565,72.904 C55.966,72.368 56.101,71.832 56.101,71.43 C56.101,70.895 55.833,70.36 55.431,69.825 C51.146,64.334 39.364,59.247 27.314,59.247" id="Fill-1"></path>
            <path d="M183.435,84.82 C184.907,75.983 191.561,69.69 202.406,69.69 C212.024,69.69 218.45,75.448 219.789,84.82 L183.435,84.82 L183.435,84.82 Z M231.368,85.963 C231.368,70.713 218.113,59.247 202.582,59.247 C184.372,59.247 171.117,71.296 171.117,88.301 C171.117,105.439 184.372,117.622 202.582,117.622 C214.631,117.622 225.477,112.536 229.761,107.045 C230.163,106.51 230.431,105.975 230.431,105.439 C230.431,105.037 230.297,104.501 229.895,103.966 L228.289,102.091 C227.753,101.422 227.217,101.155 226.548,101.155 C226.146,101.155 225.61,101.288 224.941,101.691 C223.201,102.761 214.899,107.18 205.259,107.18 C193.61,107.18 186.247,101.958 183.971,94.059 L228.69,94.059 C229.555,94.059 230.288,93.647 230.575,92.876 C231.042,91.622 231.368,89.145 231.368,85.963 L231.368,85.963 Z" id="Fill-2"></path>
            <path d="M115.849,107.18 C103.263,107.18 95.23,97.941 95.23,97.941 L95.23,78.795 C95.23,78.795 103.263,69.69 115.849,69.69 C126.695,69.69 133.791,77.054 133.791,88.301 C133.791,99.816 126.829,107.18 115.849,107.18 L115.849,107.18 Z M117.322,59.247 C109.289,59.247 100.854,63.263 95.23,69.825 L95.23,62.46 C95.23,60.988 94.025,59.916 92.82,59.916 L86.126,59.916 C84.652,59.916 83.581,60.988 83.581,62.46 L83.581,173.456 C83.581,174.795 84.652,176 86.126,176 L92.82,176 C94.025,176 95.23,174.795 95.23,173.456 L95.23,107.045 C100.854,113.607 109.289,117.622 117.322,117.622 C133.791,117.622 145.975,106.376 145.975,88.301 C145.975,70.36 133.657,59.247 117.322,59.247 L117.322,59.247 Z" id="Fill-3"></path>
            <g id="Group-7" transform="translate(257.000000, 59.000000)">
                <path d="M35.129,10.69 C44.77,10.69 53.071,15.243 54.812,16.179 C55.481,16.581 56.016,16.715 56.418,16.715 C57.087,16.715 57.624,16.448 58.159,15.778 L59.766,13.904 C60.167,13.368 60.301,12.832 60.301,12.43 C60.301,11.895 60.034,11.36 59.631,10.825 C55.347,5.334 44.502,0.247 32.452,0.247 C14.376,0.247 0.987,12.43 0.987,29.435 C0.987,46.573 14.376,58.622 32.452,58.622 C44.502,58.622 55.347,53.536 59.631,48.045 C60.034,47.51 60.301,46.975 60.301,46.439 C60.301,46.037 60.167,45.501 59.766,44.966 L58.159,43.091 C57.624,42.422 57.087,42.155 56.418,42.155 C56.016,42.155 55.481,42.288 54.812,42.691 C53.071,43.761 44.77,48.18 35.129,48.18 C20.937,48.18 13.038,40.147 13.038,29.435 C13.038,18.723 20.937,10.69 35.129,10.69" id="Fill-4"></path>
                <path d="M346.473,0.648 C344.866,0.38 343.125,0.247 341.519,0.247 C333.485,0.247 325.184,4.129 319.561,10.69 L319.561,3.46 C319.561,1.988 318.355,0.916 316.882,0.916 L310.322,0.916 C308.849,0.916 307.778,1.988 307.778,3.46 L307.778,55.276 C307.778,56.749 308.849,57.82 310.322,57.82 L316.882,57.82 C318.355,57.82 319.561,56.749 319.561,55.276 L319.561,19.66 C319.561,19.66 327.728,10.69 339.912,10.69 C341.385,10.69 343.125,10.825 344.197,10.958 C344.866,11.092 345.669,10.69 345.803,9.887 L347.41,2.389 C347.677,1.451 347.276,0.782 346.473,0.648" id="Fill-6"></path>
            </g>
            <path d="M401.309,59.916 L394.615,59.916 C393.142,59.916 392.071,60.988 392.071,62.46 L392.071,97.941 C392.071,97.941 384.038,107.18 372.122,107.18 C361.41,107.18 356.054,102.091 356.054,90.711 L356.054,62.46 C356.054,60.988 354.983,59.916 353.644,59.916 L346.95,59.916 C345.611,59.916 344.406,60.988 344.406,62.46 L344.406,91.782 C344.406,108.251 354.448,117.622 370.783,117.622 C378.28,117.622 386.448,113.607 392.071,107.045 L392.071,114.276 C392.071,115.749 393.142,116.82 394.615,116.82 L401.309,116.82 C402.648,116.82 403.719,115.749 403.719,114.276 L403.719,62.46 C403.719,60.988 402.648,59.916 401.309,59.916" id="Fill-8"></path>
            <path d="M522.469,97.941 C522.469,97.941 514.435,107.18 501.984,107.18 C491.004,107.18 483.908,99.816 483.908,88.301 C483.908,77.054 491.004,69.69 501.984,69.69 C514.435,69.69 522.469,78.795 522.469,78.795 L522.469,97.941 L522.469,97.941 Z M531.708,59.916 L525.012,59.916 C523.673,59.916 522.469,60.988 522.469,62.46 L522.469,69.825 C516.845,63.263 508.543,59.247 500.51,59.247 C484.042,59.247 471.723,70.36 471.723,88.301 C471.723,106.376 484.042,117.622 500.51,117.622 C508.543,117.622 516.845,113.741 522.469,107.045 L522.469,114.276 C522.469,115.749 523.673,116.82 525.012,116.82 L531.708,116.82 C533.18,116.82 534.25,115.749 534.25,114.276 L534.25,62.46 C534.25,60.988 533.18,59.916 531.708,59.916 L531.708,59.916 Z" id="Fill-9"></path>
            <path d="M443.485,0.87 L436.791,0.87 C435.452,0.87 434.247,2.075 434.247,3.28 L434.247,114.276 C434.247,115.749 435.452,116.82 436.791,116.82 L443.485,116.82 C444.824,116.82 445.895,115.749 445.895,114.276 L445.895,3.28 C445.895,2.075 444.824,0.87 443.485,0.87" id="Fill-10"></path>
        </g>
    </g>
</svg>